<svg width="355" height="44" viewBox="0 0 355 44" fill="none" xmlns="http://www.w3.org/2000/svg">
<path d="M158.859 15.6676L167.642 15.6676L167.642 21.3501L167.905 21.4823C170.442 17.2091 174.003 14.6096 179.133 14.5662C184.382 14.5206 187.846 17.0152 189.601 21.9201C190.674 20.6318 191.606 19.3571 192.699 18.2329C197.378 13.4238 206.097 13.3144 210.776 17.973C212.799 19.9532 213.974 22.6258 214.061 25.4386C214.257 31.2647 214.12 37.0999 214.12 43.0264L205.204 43.0264C205.188 42.6592 205.156 42.2716 205.156 41.8862C205.156 37.9687 205.156 34.0512 205.142 30.136C205.14 29.2502 205.063 28.3661 204.911 27.4931C204.496 25.1102 203.193 23.3681 200.817 22.6703C198.4 21.9612 196.112 22.4263 194.2 24.0955C192.111 25.9197 191.216 28.3163 191.172 31.007C191.117 34.5916 191.151 38.1762 191.147 41.7585L191.147 43.04L181.974 43.04L181.974 41.8452C181.974 37.9277 181.99 34.0101 181.974 30.0949C181.984 29.1006 181.895 28.1077 181.709 27.1306C180.867 23.1423 176.96 21.2224 173.21 22.9668C169.78 24.563 168.156 27.4201 168.007 31.0275C167.857 34.6349 167.963 38.1944 167.956 41.779L167.956 43.0469L158.859 43.0469L158.859 15.6676Z" fill="black"/>
<path d="M9.87366 43.0615L0 43.0615L-1.9038e-06 0.000801086L37.8617 0.00079945L37.8617 8.77986L9.91748 8.77986L9.91748 23.0111L33.1705 23.0111L33.1705 31.5872L9.87596 31.5872L9.87366 43.0615Z" fill="black"/>
<path d="M261.05 15.6722L269.881 15.6722L269.881 21.1745L270.112 21.2543C270.289 21.0263 270.481 20.7823 270.638 20.5292C275.638 12.3726 287.935 13.2528 292.338 18.7597C294.206 21.0993 295.23 23.9882 295.249 26.9687C295.355 32.2817 295.279 37.5993 295.279 43.0172L286.224 43.0172C286.208 42.6706 286.173 42.283 286.173 41.8953C286.173 37.6837 286.201 33.472 286.134 29.2626C286.095 26.7155 285.142 24.5447 282.788 23.2495C279.153 21.2452 274.095 22.5654 271.853 26.0383C270.763 27.6875 270.176 29.6117 270.16 31.5816C270.139 34.9793 270.149 38.3792 270.146 41.7768L270.146 43.0469L261.043 43.0469L261.05 15.6722Z" fill="black"/>
<path d="M228.822 43.125C225.951 43.125 223.077 43.125 220.201 43.1022C220.069 43.0706 219.947 43.0081 219.845 42.92C219.743 42.8319 219.664 42.7207 219.615 42.596C217.336 34.6903 218.693 24.0345 226.652 18.0899C231.013 14.8359 236.02 13.9101 241.355 14.8975C248.966 16.3112 253.134 21.305 255.253 28.2667C256.176 31.3223 256.448 34.4873 256.407 37.7914L227.577 37.7914L228.822 43.125ZM246.932 31.849C246.658 26.0047 243.611 20.9037 236.632 21.4145C231.92 21.7657 227.655 26.7777 227.992 31.849L246.932 31.849Z" fill="black"/>
<path d="M80.6953 15.6884L89.5057 15.6884L89.5057 21.1178L89.7571 21.2341C89.967 20.9331 90.1861 20.6389 90.3822 20.322C95.3017 12.5804 106.672 13.4811 111.045 17.8137C113.351 20.1145 114.643 22.8964 114.735 26.0227C114.922 31.6641 114.788 37.3146 114.788 43.0404L105.883 43.0404C105.863 42.6185 105.826 42.1944 105.823 41.768C105.782 37.4104 105.913 33.0436 105.66 28.6974C105.413 24.4424 102.251 22.0345 97.9125 22.3879C93.5742 22.7413 90.2945 25.7946 89.9485 30.3005C89.6533 34.0105 89.7917 37.7547 89.741 41.4738C89.741 41.98 89.741 42.4862 89.741 43.0518L80.6953 43.0518L80.6953 15.6884Z" fill="black"/>
<path d="M65.371 43.125C66.8385 39.2459 67.1428 35.0306 66.2475 30.9848C65.9763 29.6852 65.5578 28.42 64.9997 27.2132C63.2861 23.5739 60.4515 21.492 56.2746 21.5673C51.987 21.6448 49.1502 23.8909 47.6187 27.6784C45.739 32.3256 45.7206 37.1096 47.0744 41.9096C47.1644 42.2289 47.2659 42.5435 47.3558 42.8628C47.3558 42.8924 47.3351 42.9312 47.2682 43.1204L42.3164 43.1205C41.4907 43.1205 40.6673 43.1205 39.8416 43.1205C38.008 43.1205 37.9481 43.1205 37.5767 41.4034C36.0222 34.159 36.8594 27.325 41.6406 21.3712C45.9235 16.0399 51.7472 14.0948 58.4911 14.6398C68.3025 15.4356 74.6358 23.0472 75.7567 31.9448C76.1995 35.4678 76.0681 38.9475 75.0371 42.3611C74.9426 42.669 74.4951 43.0817 74.1884 43.0885C71.3054 43.1433 68.4178 43.125 65.371 43.125Z" fill="black"/>
<path d="M153.221 43.0569L144.688 43.0569L144.688 35.206C143.691 35.6255 142.704 36.1546 141.652 36.4578C139.609 37.0507 137.524 37.5068 135.46 38.0358C134.629 38.2478 133.797 38.4713 132.985 38.7495C130.815 39.4974 128.921 40.5441 128.557 43.082L119.4 43.082C119.677 39.6297 121.202 37.0074 124.17 35.231C127.03 33.5186 130.277 33.1013 133.479 32.5107C135.976 32.0546 138.474 31.578 140.954 31.0262C142.896 30.5952 144.351 29.5349 144.531 27.4279C144.72 25.1864 144.104 23.157 141.927 22.0807C138.887 20.5734 135.73 20.6852 132.747 22.2152C130.725 23.2528 129.98 25.2252 129.788 27.4599L121.234 27.4599C121.233 25.2507 121.873 23.0877 123.079 21.2279C125.106 18.0081 128.179 16.1839 131.813 15.2535C135.69 14.2639 139.632 14.2913 143.518 15.103C149.377 16.3276 152.873 20.2793 153.231 26.5478C153.54 31.9588 153.325 37.4019 153.337 42.8289C153.337 42.8814 153.277 42.9452 153.221 43.0569Z" fill="black"/>
<path d="M354.954 43.125C352.099 43.125 349.257 43.125 346.421 43.1136C346.313 43.1129 346.207 43.0888 346.11 43.0431C346.014 42.9974 345.928 42.9311 345.86 42.8491C344.622 40.4366 342.255 39.9281 339.907 39.3899C336.953 38.7058 333.968 38.1472 331.051 37.3377C327.377 36.3252 324.18 34.4805 322.895 30.7021C320.624 24.0095 323.555 17.2918 331.406 15.2942C335.895 14.1198 340.633 14.2552 345.046 15.6842C349.744 17.1983 353.194 21.4806 353.52 26.1985L345.415 26.1985C344.384 24.7825 343.722 23.2342 342.543 22.3927C339.755 20.3929 336.579 20.532 333.438 21.6767C332.992 21.8714 332.588 22.1494 332.248 22.4953C329.96 24.5818 330.421 27.9931 333.313 29.0853C335.569 29.9359 337.993 30.3532 340.341 30.9643C342.906 31.6324 345.549 32.1044 348.019 33.0165C352.002 34.501 354.41 37.4061 354.922 41.6816C354.959 41.9757 354.986 42.2699 355 42.5641C354.997 42.7518 354.981 42.9391 354.954 43.125Z" fill="black"/>
<path d="M312.979 43.0635L304.014 43.0635L304.014 22.1077L298.172 22.1077L298.172 15.6568L303.906 15.6568L303.906 3.01728L312.958 3.01728L312.958 15.6044L320.618 15.6044L320.618 22.0142L312.979 22.0142L312.979 43.0635Z" fill="black"/>
</svg>
