<?xml version="1.0" encoding="UTF-8"?>
<svg id="Capa_2" data-name="Capa 2" xmlns="http://www.w3.org/2000/svg" viewBox="0 0 1453 178.54">
  <g id="Capa_1-2" data-name="Capa 1">
    <path d="M650.2,64.86h35.95v23.52l1.08,.55c10.38-17.69,24.96-28.45,45.95-28.63,21.49-.19,35.66,10.14,42.85,30.44,4.39-5.33,8.2-10.61,12.68-15.26,19.15-19.91,54.84-20.36,73.99-1.08,8.28,8.2,13.09,19.26,13.44,30.91,.8,24.12,.25,48.28,.25,72.81h-36.49c-.07-1.52-.2-3.12-.2-4.72,0-16.22,0-32.44-.06-48.64,0-3.67-.32-7.33-.94-10.94-1.7-9.86-7.03-17.08-16.76-19.97-9.89-2.94-19.26-1.01-27.08,5.9-8.55,7.55-12.22,17.47-12.39,28.61-.23,14.84-.08,29.68-.1,44.51v5.31h-37.54v-4.95c0-16.22,.07-32.44,0-48.64,.04-4.12-.32-8.23-1.09-12.27-3.45-16.51-19.44-24.46-34.79-17.24-14.04,6.61-20.68,18.44-21.3,33.37-.61,14.93-.18,29.67-.21,44.51v5.25h-37.23V64.86Z"/>
    <polygon points="40.41 178.26 0 178.26 0 0 154.97 0 154.97 36.34 40.59 36.34 40.59 95.26 135.77 95.26 135.77 130.76 40.42 130.76 40.41 178.26"/>
    <path d="M1068.47,64.88h36.15v22.78l.94,.33c.73-.94,1.51-1.95,2.15-3,20.47-33.77,70.8-30.12,88.82-7.33,7.64,9.69,11.84,21.65,11.91,33.98,.43,22,.12,44.01,.12,66.44h-37.06c-.07-1.43-.21-3.04-.21-4.64,0-17.44,.11-34.87-.16-52.3-.16-10.54-4.06-19.53-13.7-24.89-14.88-8.3-35.58-2.83-44.75,11.55-4.46,6.83-6.87,14.79-6.93,22.95-.08,14.07-.05,28.14-.06,42.21v5.26h-37.26l.03-113.33Z"/>
    <path d="M1010.69,131.85c-1.12-24.19-13.59-45.31-42.16-43.2-19.29,1.45-36.74,22.2-35.36,43.2h77.52Zm-74.12,46.68c-11.75,0-23.51,0-35.29-.09-.54-.13-1.04-.39-1.46-.75-.42-.36-.74-.83-.94-1.34-9.33-32.73-3.78-76.84,28.8-101.45,17.85-13.47,38.35-17.3,60.18-13.22,31.15,5.85,48.21,26.53,56.89,55.35,3.78,12.65,4.89,25.75,4.72,39.43h-118l5.1,22.08Z"/>
    <path d="M330.28,64.94h36.06v22.48l1.03,.48c.86-1.25,1.76-2.46,2.56-3.78,20.14-32.05,66.67-28.32,84.57-10.38,9.44,9.52,14.73,21.04,15.1,33.98,.76,23.35,.22,46.75,.22,70.45h-36.45c-.08-1.75-.24-3.5-.25-5.27-.17-18.04,.37-36.12-.67-54.11-1.01-17.61-13.95-27.58-31.71-26.12-17.76,1.46-31.18,14.1-32.6,32.76-1.21,15.36-.64,30.86-.85,46.26v6.53h-37.02V64.94Z"/>
    <path d="M267.56,178.53c6.01-16.06,7.25-33.51,3.59-50.26-1.11-5.38-2.82-10.62-5.11-15.61-7.01-15.07-18.62-23.68-35.71-23.37-17.55,.32-29.16,9.62-35.43,25.3-7.69,19.24-7.77,39.04-2.23,58.91,.37,1.32,.78,2.62,1.15,3.95,0,.12-.08,.28-.36,1.07h-30.4c-7.5,0-7.75,0-9.27-7.11-6.36-29.99-2.94-58.28,16.63-82.93,17.53-22.07,41.37-30.12,68.97-27.87,40.16,3.29,66.08,34.81,70.67,71.64,1.81,14.58,1.27,28.99-2.95,43.12-.39,1.27-2.22,2.98-3.47,3.01-11.8,.23-23.62,.15-36.09,.15Z"/>
    <path d="M627.13,178.25h-34.93v-32.5c-4.08,1.74-8.12,3.93-12.42,5.18-8.36,2.45-16.9,4.34-25.35,6.53-3.4,.88-6.81,1.8-10.13,2.95-8.88,3.1-16.63,7.43-18.12,17.94h-37.48c1.13-14.29,7.37-25.15,19.52-32.5,11.71-7.09,25-8.82,38.1-11.26,10.22-1.89,20.45-3.86,30.59-6.15,7.95-1.78,13.9-6.17,14.64-14.9,.77-9.28-1.75-17.68-10.66-22.14-12.44-6.24-25.37-5.78-37.57,.56-8.28,4.3-11.33,12.46-12.11,21.71h-35.01c0-9.15,2.62-18.1,7.55-25.8,8.3-13.33,20.87-20.88,35.75-24.73,15.87-4.1,32-3.98,47.91-.62,23.98,5.07,38.29,21.43,39.75,47.38,1.26,22.4,.39,44.93,.43,67.4,0,.22-.25,.48-.47,.94Z"/>
    <path d="M1452.81,178.53c-11.69,0-23.32,0-34.93-.05-.44,0-.87-.1-1.27-.29-.4-.19-.75-.46-1.03-.8-5.07-9.99-14.75-12.09-24.36-14.32-12.09-2.83-24.31-5.14-36.25-8.5-15.04-4.19-28.12-11.83-33.38-27.47-9.3-27.71,2.7-55.52,34.83-63.79,18.37-4.86,37.76-4.3,55.83,1.61,19.23,6.27,33.35,24,34.68,43.53h-33.17c-4.22-5.86-6.93-12.27-11.75-15.76-11.41-8.28-24.41-7.7-37.27-2.96-1.83,.81-3.48,1.96-4.87,3.39-9.36,8.64-7.48,22.76,4.36,27.28,9.23,3.52,19.15,5.25,28.76,7.78,10.5,2.77,21.32,4.72,31.43,8.5,16.3,6.15,26.16,18.17,28.25,35.87,.15,1.22,.26,2.44,.32,3.65-.02,.78-.08,1.55-.19,2.32Z"/>
    <polygon points="1281.01 178.27 1244.31 178.27 1244.31 91.52 1220.4 91.52 1220.4 64.81 1243.87 64.81 1243.87 12.49 1280.92 12.49 1280.92 64.6 1312.27 64.6 1312.27 91.13 1281.01 91.13 1281.01 178.27"/>
  </g>
</svg>