<svg width="40" height="39" viewBox="0 0 40 39" fill="none" xmlns="http://www.w3.org/2000/svg">
<rect x="1.42188" y="0.654297" width="37.7692" height="37.7692" stroke="black"/>
<path d="M20.4911 12.5701C21.8475 12.5701 22.9471 11.4706 22.9471 10.1142C22.9471 8.75778 21.8475 7.6582 20.4911 7.6582C19.1347 7.6582 18.0352 8.75778 18.0352 10.1142C18.0352 11.4706 19.1347 12.5701 20.4911 12.5701Z" fill="#020202"/>
<path d="M26.3448 13.1885L30.1714 12.8037C30.4738 12.8037 30.7639 12.9238 30.9777 13.1377C31.1916 13.3515 31.3117 13.6416 31.3117 13.944C31.3117 14.2464 31.1916 14.5364 30.9777 14.7503C30.7639 14.9641 30.4738 15.0843 30.1714 15.0843L26.0781 15.7561C25.5307 15.846 25.0331 16.1275 24.674 16.5504C24.315 16.9733 24.1179 17.51 24.1181 18.0647V29.0856C24.1181 29.8306 23.5386 30.4651 22.7942 30.489C22.6096 30.4958 22.4256 30.4653 22.2531 30.3993C22.0806 30.3334 21.9232 30.2333 21.7902 30.1052C21.6573 29.977 21.5515 29.8234 21.4792 29.6534C21.407 29.4835 21.3697 29.3007 21.3697 29.116V24.0556C21.372 23.8273 21.2868 23.6068 21.1316 23.4393C20.9765 23.2718 20.7631 23.1701 20.5353 23.155C20.4165 23.1493 20.2979 23.1677 20.1865 23.2091C20.0751 23.2506 19.9733 23.3143 19.8872 23.3963C19.8012 23.4784 19.7328 23.577 19.686 23.6863C19.6393 23.7956 19.6153 23.9133 19.6154 24.0322V29.0868C19.6154 29.8318 19.0359 30.4662 18.2916 30.4902C18.107 30.497 17.923 30.4664 17.7505 30.4005C17.578 30.3345 17.4206 30.2345 17.2876 30.1063C17.1547 29.9782 17.0489 29.8245 16.9766 29.6546C16.9044 29.4846 16.8671 29.3019 16.8671 29.1172V18.0653C16.8674 17.5108 16.6708 16.9742 16.3122 16.5513C15.9536 16.1283 15.4564 15.8465 14.9093 15.7561L10.8161 15.0843C10.5136 15.0843 10.2236 14.9641 10.0098 14.7503C9.79592 14.5364 9.67578 14.2464 9.67578 13.944C9.67578 13.6416 9.79592 13.3515 10.0098 13.1377C10.2236 12.9238 10.5136 12.8037 10.8161 12.8037L14.6427 13.1885C18.5336 13.5797 22.4539 13.5797 26.3448 13.1885Z" fill="#020202"/>
</svg>
